<?xml version="1.0" encoding="UTF-8"?>
<svg width="326px" height="58px" viewBox="0 0 326 58" version="1.1" xmlns="http://www.w3.org/2000/svg" xmlns:xlink="http://www.w3.org/1999/xlink">
    <!-- Generator: Sketch 51.3 (57544) - http://www.bohemiancoding.com/sketch -->
    <title>11 Yhteislogo_english</title>
    <desc>Created with Sketch.</desc>
    <defs></defs>
    <g id="Page-1" stroke="none" stroke-width="1" fill="none" fill-rule="evenodd">
        <g id="11-Yhteislogo_english" fill="#4e008e">
            <polygon id="Fill-1" points="8.242 29.473 17.44 29.473 17.44 25.793 8.242 25.793"></polygon>
            <polyline id="Fill-2" points="24.799 29.473 33.997 29.473 33.997 25.793 21.119 25.793 21.119 42.35 24.799 42.35 24.799 29.473"></polyline>
            <path d="M17.44,4.128 L17.44,0.373 C8.02,2.104 0.883,10.356 0.883,20.274 L0.883,29.473 L4.562,29.473 L4.562,20.274 C4.562,12.394 10.067,5.802 17.44,4.128" id="Fill-3"></path>
            <path d="M37.676,25.793 L37.676,36.83 C37.676,45.974 30.263,53.388 21.119,53.388 L21.119,57.066 C32.295,57.066 41.355,48.007 41.355,36.83 L41.355,25.793 L37.676,25.793" id="Fill-4"></path>
            <polyline id="Fill-5" points="56.191 44.056 56.191 54.031 54.239 54.031 54.239 44.056 50.4 44.056 50.4 42.35 60.03 42.35 60.03 44.056 56.191 44.056"></polyline>
            <path d="M65.823,48.715 L65.823,51.832 C65.823,52.817 65.905,53.506 66.036,54.031 L64.346,54.031 C64.264,53.67 64.232,53.26 64.232,52.866 L64.199,52.866 C63.592,53.752 62.657,54.212 61.394,54.212 C59.654,54.212 58.571,53.161 58.571,51.734 C58.571,50.373 59.375,49.487 61.771,49.109 C62.443,48.994 63.428,48.896 64.018,48.863 L64.018,48.535 C64.018,47.305 63.345,46.812 62.394,46.812 C61.361,46.812 60.802,47.387 60.754,48.272 L58.916,48.272 C58.998,46.698 60.146,45.451 62.394,45.451 C64.593,45.451 65.823,46.534 65.823,48.715 Z M64.018,50.077 C63.461,50.11 62.657,50.192 62.099,50.29 C60.901,50.487 60.458,50.848 60.458,51.603 C60.458,52.341 60.983,52.833 61.935,52.833 C62.509,52.833 63.067,52.653 63.444,52.276 C63.887,51.816 64.018,51.373 64.018,50.487 L64.018,50.077 Z" id="Fill-6"></path>
            <path d="M79.477,48.896 L79.477,54.031 L77.607,54.031 L77.607,49.076 C77.607,47.6 77.033,47.009 76.098,47.009 C74.998,47.009 74.342,47.944 74.342,49.536 L74.342,54.031 L72.472,54.031 L72.472,48.879 C72.472,47.698 71.947,47.009 70.979,47.009 C69.863,47.009 69.224,47.961 69.224,49.568 L69.224,54.031 L67.353,54.031 L67.353,45.697 L69.142,45.697 L69.142,46.698 L69.175,46.698 C69.765,45.894 70.503,45.5 71.488,45.5 C72.636,45.5 73.522,46.025 73.949,47.009 C74.556,46.057 75.36,45.5 76.623,45.5 C78.395,45.5 79.477,46.648 79.477,48.896" id="Fill-7"></path>
            <path d="M88.84,49.864 C88.84,52.522 87.495,54.228 85.378,54.228 C84.345,54.228 83.41,53.752 82.934,52.948 L82.901,52.948 L82.901,57.066 L81.031,57.066 L81.031,45.697 L82.852,45.697 L82.852,46.845 L82.885,46.845 C83.377,45.992 84.312,45.483 85.362,45.483 C87.478,45.483 88.84,47.206 88.84,49.864 Z M82.803,49.864 C82.803,51.669 83.607,52.784 84.821,52.784 C86.084,52.784 86.887,51.636 86.887,49.864 C86.887,48.092 86.084,46.944 84.821,46.944 C83.607,46.944 82.803,48.043 82.803,49.864 Z" id="Fill-8"></path>
            <path d="M95.468,51.521 L97.387,51.521 C97.076,53.014 95.73,54.277 93.548,54.277 C91.005,54.277 89.513,52.456 89.513,49.765 C89.513,47.305 90.989,45.451 93.515,45.451 C95.419,45.451 96.797,46.55 97.256,48.289 C97.42,48.814 97.486,49.437 97.486,50.241 L91.367,50.241 C91.432,52.128 92.384,52.899 93.548,52.899 C94.615,52.899 95.304,52.325 95.468,51.521 Z M91.399,49.011 L95.616,49.011 C95.484,47.55 94.631,46.829 93.515,46.829 C92.384,46.829 91.564,47.567 91.399,49.011 Z" id="Fill-9"></path>
            <path d="M103.423,45.664 L103.423,47.321 C103.193,47.272 102.98,47.255 102.767,47.255 C101.274,47.255 100.454,48.207 100.454,49.946 L100.454,54.031 L98.583,54.031 L98.583,45.697 L100.323,45.697 L100.323,46.927 L100.355,46.927 C100.913,46.025 101.7,45.582 102.734,45.582 C102.947,45.582 103.21,45.615 103.423,45.664" id="Fill-10"></path>
            <path d="M109.518,51.521 L111.437,51.521 C111.126,53.014 109.78,54.277 107.598,54.277 C105.055,54.277 103.563,52.456 103.563,49.765 C103.563,47.305 105.039,45.451 107.565,45.451 C109.469,45.451 110.847,46.55 111.306,48.289 C111.47,48.814 111.536,49.437 111.536,50.241 L105.416,50.241 C105.482,52.128 106.433,52.899 107.598,52.899 C108.665,52.899 109.354,52.325 109.518,51.521 Z M105.449,49.011 L109.666,49.011 C109.534,47.55 108.681,46.829 107.565,46.829 C106.433,46.829 105.613,47.567 105.449,49.011 Z" id="Fill-11"></path>
            <path d="M125.596,49.618 C125.596,52.653 124.004,54.277 121.117,54.277 C118.229,54.277 116.621,52.653 116.621,49.618 L116.621,42.35 L118.59,42.35 L118.59,49.552 C118.59,51.521 119.509,52.522 121.117,52.522 C122.724,52.522 123.643,51.521 123.643,49.552 L123.643,42.35 L125.596,42.35 L125.596,49.618" id="Fill-12"></path>
            <path d="M134.615,48.929 L134.615,54.031 L132.745,54.031 L132.745,49.093 C132.745,47.6 132.105,47.009 131.055,47.009 C129.989,47.009 129.152,47.813 129.152,49.405 L129.152,54.031 L127.282,54.031 L127.282,45.697 L129.054,45.697 L129.054,46.78 L129.087,46.78 C129.612,46.025 130.481,45.5 131.58,45.5 C133.467,45.5 134.615,46.648 134.615,48.929" id="Fill-13"></path>
            <path d="M136.152,44.138 L138.022,44.138 L138.022,42.35 L136.152,42.35 L136.152,44.138 Z M136.152,54.031 L138.022,54.031 L138.022,45.697 L136.152,45.697 L136.152,54.031 Z" id="Fill-14"></path>
            <path d="M141.484,54.031 L138.58,45.697 L140.533,45.697 L141.616,49.093 C142.009,50.307 142.354,51.504 142.682,52.735 L142.715,52.735 C143.043,51.504 143.387,50.307 143.781,49.093 L144.864,45.697 L146.816,45.697 L143.912,54.031 L141.484,54.031" id="Fill-15"></path>
            <path d="M152.548,51.521 L154.468,51.521 C154.156,53.014 152.811,54.277 150.629,54.277 C148.086,54.277 146.593,52.456 146.593,49.765 C146.593,47.305 148.069,45.451 150.596,45.451 C152.499,45.451 153.877,46.55 154.337,48.289 C154.501,48.814 154.566,49.437 154.566,50.241 L148.447,50.241 C148.513,52.128 149.464,52.899 150.629,52.899 C151.695,52.899 152.384,52.325 152.548,51.521 Z M148.48,49.011 L152.696,49.011 C152.565,47.55 151.712,46.829 150.596,46.829 C149.464,46.829 148.644,47.567 148.48,49.011 Z" id="Fill-16"></path>
            <path d="M160.504,45.664 L160.504,47.321 C160.274,47.272 160.06,47.255 159.847,47.255 C158.354,47.255 157.534,48.207 157.534,49.946 L157.534,54.031 L155.664,54.031 L155.664,45.697 L157.403,45.697 L157.403,46.927 L157.436,46.927 C157.993,46.025 158.781,45.582 159.815,45.582 C160.028,45.582 160.29,45.615 160.504,45.664" id="Fill-17"></path>
            <path d="M167.622,48.289 L165.818,48.289 C165.818,47.288 165.227,46.812 164.226,46.812 C163.357,46.812 162.848,47.19 162.848,47.797 C162.848,48.518 163.422,48.666 164.735,48.994 C166.26,49.388 167.885,49.749 167.885,51.734 C167.885,53.244 166.539,54.277 164.39,54.277 C162.159,54.277 160.797,53.276 160.781,51.291 L162.684,51.291 C162.684,52.308 163.307,52.883 164.423,52.883 C165.375,52.883 165.932,52.473 165.932,51.849 C165.932,50.996 165.276,50.832 163.833,50.471 C162.438,50.126 160.978,49.814 160.978,47.944 C160.978,46.468 162.29,45.451 164.242,45.451 C166.359,45.451 167.606,46.435 167.622,48.289" id="Fill-18"></path>
            <path d="M169.008,44.138 L170.878,44.138 L170.878,42.35 L169.008,42.35 L169.008,44.138 Z M169.008,54.031 L170.878,54.031 L170.878,45.697 L169.008,45.697 L169.008,54.031 Z" id="Fill-19"></path>
            <path d="M176.509,52.522 L176.509,53.982 C176.23,54.064 175.803,54.129 175.459,54.129 C173.703,54.129 172.933,53.391 172.933,51.57 L172.933,47.124 L171.538,47.124 L171.538,45.697 L172.933,45.697 L172.933,43.613 L174.803,43.613 L174.803,45.697 L176.427,45.697 L176.427,47.124 L174.803,47.124 L174.803,51.291 C174.803,52.226 175.114,52.604 175.935,52.604 C176.148,52.604 176.378,52.571 176.509,52.522" id="Fill-20"></path>
            <path d="M181.68,54.392 C180.893,56.508 179.974,57.148 178.037,57.148 C177.677,57.148 177.349,57.099 177.103,57.033 L177.103,55.507 C177.316,55.573 177.595,55.622 177.89,55.622 C178.907,55.622 179.35,55.245 179.744,54.097 L176.692,45.697 L178.694,45.697 L180.777,51.898 L180.81,51.898 L182.96,45.697 L184.895,45.697 L181.68,54.392" id="Fill-21"></path>
            <path d="M196.757,49.864 C196.757,52.571 195.182,54.277 192.655,54.277 C190.129,54.277 188.537,52.571 188.537,49.864 C188.537,47.157 190.129,45.451 192.655,45.451 C195.182,45.451 196.757,47.157 196.757,49.864 Z M190.506,49.864 C190.506,51.669 191.326,52.801 192.655,52.801 C193.984,52.801 194.804,51.669 194.804,49.864 C194.804,48.059 193.984,46.927 192.655,46.927 C191.326,46.927 190.506,48.059 190.506,49.864 Z" id="Fill-22"></path>
            <path d="M200.138,45.024 L200.138,45.697 L201.746,45.697 L201.746,47.124 L200.138,47.124 L200.138,54.031 L198.284,54.031 L198.284,47.124 L196.873,47.124 L196.873,45.697 L198.284,45.697 L198.284,44.811 C198.284,43.088 199.17,42.235 200.81,42.235 C201.155,42.235 201.549,42.301 201.795,42.35 L201.795,43.728 C201.68,43.695 201.5,43.662 201.335,43.662 C200.532,43.662 200.138,44.039 200.138,45.024" id="Fill-23"></path>
            <path d="M208.308,50.865 L207.225,54.031 L205.158,54.031 L209.407,42.35 L212.049,42.35 L216.298,54.031 L214.231,54.031 L213.148,50.865 L208.308,50.865 Z M212.245,48.24 C211.72,46.681 211.212,45.155 210.736,43.597 L210.703,43.597 C210.228,45.155 209.752,46.681 209.21,48.24 L208.899,49.158 L212.557,49.158 L212.245,48.24 Z" id="Fill-24"></path>
            <path d="M224.768,49.864 C224.768,52.522 223.423,54.228 221.306,54.228 C220.273,54.228 219.338,53.752 218.862,52.948 L218.829,52.948 L218.829,57.066 L216.959,57.066 L216.959,45.697 L218.78,45.697 L218.78,46.845 L218.812,46.845 C219.305,45.992 220.24,45.483 221.29,45.483 C223.406,45.483 224.768,47.206 224.768,49.864 Z M218.731,49.864 C218.731,51.669 219.534,52.784 220.749,52.784 C222.012,52.784 222.816,51.636 222.816,49.864 C222.816,48.092 222.012,46.944 220.749,46.944 C219.534,46.944 218.731,48.043 218.731,49.864 Z" id="Fill-25"></path>
            <path d="M233.729,49.864 C233.729,52.522 232.384,54.228 230.267,54.228 C229.233,54.228 228.298,53.752 227.823,52.948 L227.79,52.948 L227.79,57.066 L225.92,57.066 L225.92,45.697 L227.741,45.697 L227.741,46.845 L227.774,46.845 C228.265,45.992 229.201,45.483 230.251,45.483 C232.367,45.483 233.729,47.206 233.729,49.864 Z M227.691,49.864 C227.691,51.669 228.496,52.784 229.709,52.784 C230.973,52.784 231.776,51.636 231.776,49.864 C231.776,48.092 230.973,46.944 229.709,46.944 C228.496,46.944 227.691,48.043 227.691,49.864 Z" id="Fill-26"></path>
            <polygon id="Fill-27" points="234.895 54.031 236.765 54.031 236.765 42.35 234.895 42.35"></polygon>
            <path d="M238.33,44.138 L240.2,44.138 L240.2,42.35 L238.33,42.35 L238.33,44.138 Z M238.33,54.031 L240.2,54.031 L240.2,45.697 L238.33,45.697 L238.33,54.031 Z" id="Fill-28"></path>
            <path d="M247.28,51.521 L249.199,51.521 C248.887,53.014 247.542,54.277 245.36,54.277 C242.817,54.277 241.324,52.456 241.324,49.765 C241.324,47.305 242.801,45.451 245.327,45.451 C247.231,45.451 248.609,46.55 249.068,48.289 C249.232,48.814 249.297,49.437 249.297,50.241 L243.178,50.241 C243.244,52.128 244.195,52.899 245.36,52.899 C246.426,52.899 247.116,52.325 247.28,51.521 Z M243.211,49.011 L247.427,49.011 C247.296,47.55 246.443,46.829 245.327,46.829 C244.195,46.829 243.375,47.567 243.211,49.011 Z" id="Fill-29"></path>
            <path d="M255.919,54.031 L255.919,52.883 L255.886,52.883 C255.394,53.736 254.459,54.228 253.409,54.228 C251.293,54.228 249.931,52.522 249.931,49.864 C249.931,47.206 251.276,45.483 253.392,45.483 C254.426,45.483 255.361,45.959 255.837,46.78 L255.87,46.78 L255.87,42.35 L257.74,42.35 L257.74,54.031 L255.919,54.031 Z M251.883,49.864 C251.883,51.636 252.687,52.784 253.95,52.784 C255.164,52.784 255.968,51.669 255.968,49.864 C255.968,48.043 255.164,46.944 253.95,46.944 C252.687,46.944 251.883,48.092 251.883,49.864 Z" id="Fill-30"></path>
            <path d="M271.193,45.943 L269.208,45.943 C269.208,44.466 268.371,43.712 266.862,43.712 C265.598,43.712 264.811,44.319 264.811,45.27 C264.811,46.337 265.615,46.665 267.485,47.124 C269.683,47.666 271.521,48.24 271.521,50.701 C271.521,52.866 269.782,54.277 267.157,54.277 C264.335,54.277 262.612,52.85 262.612,50.175 L264.63,50.175 C264.63,51.849 265.549,52.653 267.173,52.653 C268.633,52.653 269.487,51.98 269.487,50.881 C269.487,49.7 268.633,49.437 266.845,48.994 C264.63,48.437 262.793,47.895 262.793,45.451 C262.793,43.465 264.417,42.104 266.895,42.104 C269.733,42.104 271.193,43.433 271.193,45.943" id="Fill-31"></path>
            <path d="M280.012,48.715 L278.06,48.715 C277.978,47.633 277.272,46.927 276.255,46.927 C274.943,46.927 274.172,48.043 274.172,49.864 C274.172,51.685 274.943,52.801 276.255,52.801 C277.272,52.801 277.962,51.997 278.044,50.865 L280.012,50.865 C279.848,52.883 278.405,54.277 276.255,54.277 C273.795,54.277 272.203,52.571 272.203,49.864 C272.203,47.157 273.795,45.451 276.255,45.451 C278.388,45.451 279.848,46.812 280.012,48.715" id="Fill-32"></path>
            <path d="M281.098,44.138 L282.968,44.138 L282.968,42.35 L281.098,42.35 L281.098,44.138 Z M281.098,54.031 L282.968,54.031 L282.968,45.697 L281.098,45.697 L281.098,54.031 Z" id="Fill-33"></path>
            <path d="M290.047,51.521 L291.967,51.521 C291.655,53.014 290.31,54.277 288.128,54.277 C285.585,54.277 284.092,52.456 284.092,49.765 C284.092,47.305 285.569,45.451 288.095,45.451 C289.998,45.451 291.377,46.55 291.836,48.289 C292,48.814 292.065,49.437 292.065,50.241 L285.946,50.241 C286.012,52.128 286.963,52.899 288.128,52.899 C289.194,52.899 289.884,52.325 290.047,51.521 Z M285.979,49.011 L290.195,49.011 C290.064,47.55 289.211,46.829 288.095,46.829 C286.963,46.829 286.143,47.567 285.979,49.011 Z" id="Fill-34"></path>
            <path d="M300.496,48.929 L300.496,54.031 L298.626,54.031 L298.626,49.093 C298.626,47.6 297.987,47.009 296.936,47.009 C295.87,47.009 295.034,47.813 295.034,49.405 L295.034,54.031 L293.163,54.031 L293.163,45.697 L294.935,45.697 L294.935,46.78 L294.968,46.78 C295.493,46.025 296.362,45.5 297.462,45.5 C299.348,45.5 300.496,46.648 300.496,48.929" id="Fill-35"></path>
            <path d="M309.336,48.715 L307.384,48.715 C307.302,47.633 306.596,46.927 305.579,46.927 C304.267,46.927 303.496,48.043 303.496,49.864 C303.496,51.685 304.267,52.801 305.579,52.801 C306.596,52.801 307.285,51.997 307.367,50.865 L309.336,50.865 C309.172,52.883 307.728,54.277 305.579,54.277 C303.118,54.277 301.527,52.571 301.527,49.864 C301.527,47.157 303.118,45.451 305.579,45.451 C307.711,45.451 309.172,46.812 309.336,48.715" id="Fill-36"></path>
            <path d="M315.869,51.521 L317.788,51.521 C317.477,53.014 316.131,54.277 313.949,54.277 C311.406,54.277 309.913,52.456 309.913,49.765 C309.913,47.305 311.39,45.451 313.916,45.451 C315.819,45.451 317.198,46.55 317.657,48.289 C317.821,48.814 317.886,49.437 317.886,50.241 L311.767,50.241 C311.832,52.128 312.784,52.899 313.949,52.899 C315.015,52.899 315.705,52.325 315.869,51.521 Z M311.8,49.011 L316.016,49.011 C315.885,47.55 315.032,46.829 313.916,46.829 C312.784,46.829 311.964,47.567 311.8,49.011 Z" id="Fill-37"></path>
            <path d="M325.3,48.289 L323.496,48.289 C323.496,47.288 322.905,46.812 321.904,46.812 C321.035,46.812 320.526,47.19 320.526,47.797 C320.526,48.518 321.1,48.666 322.413,48.994 C323.939,49.388 325.563,49.749 325.563,51.734 C325.563,53.244 324.218,54.277 322.068,54.277 C319.837,54.277 318.475,53.276 318.459,51.291 L320.362,51.291 C320.362,52.308 320.986,52.883 322.101,52.883 C323.053,52.883 323.61,52.473 323.61,51.849 C323.61,50.996 322.954,50.832 321.51,50.471 C320.116,50.126 318.656,49.814 318.656,47.944 C318.656,46.468 319.968,45.451 321.921,45.451 C324.037,45.451 325.284,46.435 325.3,48.289" id="Fill-38"></path>
            <polyline id="Fill-39" points="56.191 27.5 56.191 37.475 54.239 37.475 54.239 27.5 50.4 27.5 50.4 25.793 60.03 25.793 60.03 27.5 56.191 27.5"></polyline>
            <path d="M65.824,32.159 L65.824,35.276 C65.824,36.261 65.906,36.95 66.037,37.475 L64.347,37.475 C64.265,37.114 64.232,36.704 64.232,36.31 L64.199,36.31 C63.592,37.196 62.657,37.655 61.394,37.655 C59.655,37.655 58.572,36.605 58.572,35.178 C58.572,33.816 59.376,32.93 61.771,32.553 C62.444,32.438 63.428,32.339 64.019,32.307 L64.019,31.979 C64.019,30.748 63.346,30.256 62.395,30.256 C61.361,30.256 60.803,30.83 60.754,31.716 L58.916,31.716 C58.998,30.141 60.147,28.894 62.395,28.894 C64.593,28.894 65.824,29.977 65.824,32.159 Z M64.019,33.521 C63.461,33.554 62.657,33.635 62.099,33.734 C60.901,33.931 60.459,34.292 60.459,35.047 C60.459,35.785 60.984,36.277 61.935,36.277 C62.509,36.277 63.067,36.097 63.444,35.719 C63.887,35.26 64.019,34.817 64.019,33.931 L64.019,33.521 Z" id="Fill-40"></path>
            <path d="M79.478,32.339 L79.478,37.475 L77.608,37.475 L77.608,32.52 C77.608,31.044 77.034,30.453 76.099,30.453 C75,30.453 74.343,31.388 74.343,32.98 L74.343,37.475 L72.473,37.475 L72.473,32.323 C72.473,31.142 71.948,30.453 70.98,30.453 C69.864,30.453 69.225,31.404 69.225,33.012 L69.225,37.475 L67.354,37.475 L67.354,29.14 L69.142,29.14 L69.142,30.141 L69.175,30.141 C69.766,29.337 70.504,28.944 71.488,28.944 C72.637,28.944 73.523,29.468 73.95,30.453 C74.556,29.501 75.36,28.944 76.624,28.944 C78.396,28.944 79.478,30.092 79.478,32.339" id="Fill-41"></path>
            <path d="M88.842,33.307 C88.842,35.966 87.496,37.672 85.38,37.672 C84.346,37.672 83.411,37.196 82.935,36.392 L82.902,36.392 L82.902,40.51 L81.032,40.51 L81.032,29.14 L82.853,29.14 L82.853,30.289 L82.886,30.289 C83.378,29.435 84.313,28.927 85.364,28.927 C87.48,28.927 88.842,30.65 88.842,33.307 Z M82.804,33.307 C82.804,35.112 83.608,36.228 84.822,36.228 C86.085,36.228 86.889,35.08 86.889,33.307 C86.889,31.536 86.085,30.387 84.822,30.387 C83.608,30.387 82.804,31.487 82.804,33.307 Z" id="Fill-42"></path>
            <path d="M95.47,34.965 L97.389,34.965 C97.077,36.458 95.732,37.721 93.55,37.721 C91.007,37.721 89.514,35.9 89.514,33.209 C89.514,30.748 90.991,28.894 93.517,28.894 C95.42,28.894 96.799,29.994 97.258,31.733 C97.422,32.258 97.487,32.881 97.487,33.685 L91.368,33.685 C91.433,35.572 92.385,36.343 93.55,36.343 C94.617,36.343 95.306,35.769 95.47,34.965 Z M91.401,32.454 L95.617,32.454 C95.486,30.994 94.633,30.272 93.517,30.272 C92.385,30.272 91.565,31.011 91.401,32.454 Z" id="Fill-43"></path>
            <path d="M103.425,29.108 L103.425,30.765 C103.195,30.715 102.982,30.699 102.769,30.699 C101.276,30.699 100.456,31.651 100.456,33.39 L100.456,37.475 L98.585,37.475 L98.585,29.14 L100.324,29.14 L100.324,30.371 L100.357,30.371 C100.915,29.468 101.702,29.025 102.736,29.025 C102.949,29.025 103.212,29.058 103.425,29.108" id="Fill-44"></path>
            <path d="M109.52,34.965 L111.439,34.965 C111.128,36.458 109.783,37.721 107.601,37.721 C105.058,37.721 103.564,35.9 103.564,33.209 C103.564,30.748 105.041,28.894 107.568,28.894 C109.471,28.894 110.849,29.994 111.308,31.733 C111.472,32.258 111.538,32.881 111.538,33.685 L105.418,33.685 C105.484,35.572 106.435,36.343 107.601,36.343 C108.667,36.343 109.356,35.769 109.52,34.965 Z M105.451,32.454 L109.668,32.454 C109.537,30.994 108.683,30.272 107.568,30.272 C106.435,30.272 105.615,31.011 105.451,32.454 Z" id="Fill-45"></path>
            <path d="M125.598,33.061 C125.598,36.097 124.007,37.721 121.119,37.721 C118.232,37.721 116.624,36.097 116.624,33.061 L116.624,25.793 L118.593,25.793 L118.593,32.996 C118.593,34.965 119.511,35.966 121.119,35.966 C122.727,35.966 123.646,34.965 123.646,32.996 L123.646,25.793 L125.598,25.793 L125.598,33.061" id="Fill-46"></path>
            <path d="M134.618,32.372 L134.618,37.475 L132.748,37.475 L132.748,32.536 C132.748,31.044 132.108,30.453 131.058,30.453 C129.992,30.453 129.155,31.257 129.155,32.848 L129.155,37.475 L127.285,37.475 L127.285,29.14 L129.057,29.14 L129.057,30.223 L129.089,30.223 C129.615,29.468 130.484,28.944 131.583,28.944 C133.47,28.944 134.618,30.092 134.618,32.372" id="Fill-47"></path>
            <path d="M136.156,27.581 L138.026,27.581 L138.026,25.793 L136.156,25.793 L136.156,27.581 Z M136.156,37.474 L138.026,37.474 L138.026,29.14 L136.156,29.14 L136.156,37.474 Z" id="Fill-48"></path>
            <path d="M141.488,37.475 L138.584,29.14 L140.536,29.14 L141.619,32.536 C142.013,33.751 142.357,34.948 142.685,36.179 L142.718,36.179 C143.046,34.948 143.391,33.751 143.785,32.536 L144.867,29.14 L146.82,29.14 L143.916,37.475 L141.488,37.475" id="Fill-49"></path>
            <path d="M152.552,34.965 L154.472,34.965 C154.16,36.458 152.815,37.721 150.632,37.721 C148.089,37.721 146.597,35.9 146.597,33.209 C146.597,30.748 148.073,28.894 150.6,28.894 C152.503,28.894 153.881,29.994 154.341,31.733 C154.505,32.258 154.57,32.881 154.57,33.685 L148.451,33.685 C148.516,35.572 149.468,36.343 150.632,36.343 C151.699,36.343 152.388,35.769 152.552,34.965 Z M148.483,32.454 L152.7,32.454 C152.568,30.994 151.716,30.272 150.6,30.272 C149.468,30.272 148.648,31.011 148.483,32.454 Z" id="Fill-50"></path>
            <path d="M160.508,29.108 L160.508,30.765 C160.278,30.715 160.065,30.699 159.852,30.699 C158.359,30.699 157.538,31.651 157.538,33.39 L157.538,37.475 L155.668,37.475 L155.668,29.14 L157.407,29.14 L157.407,30.371 L157.44,30.371 C157.997,29.468 158.785,29.025 159.819,29.025 C160.032,29.025 160.295,29.058 160.508,29.108" id="Fill-51"></path>
            <path d="M167.626,31.733 L165.822,31.733 C165.822,30.732 165.231,30.256 164.23,30.256 C163.361,30.256 162.852,30.633 162.852,31.24 C162.852,31.962 163.426,32.11 164.739,32.438 C166.265,32.832 167.889,33.193 167.889,35.178 C167.889,36.687 166.544,37.721 164.394,37.721 C162.163,37.721 160.801,36.72 160.785,34.735 L162.688,34.735 C162.688,35.752 163.312,36.326 164.427,36.326 C165.379,36.326 165.936,35.916 165.936,35.293 C165.936,34.44 165.281,34.276 163.836,33.915 C162.442,33.57 160.982,33.258 160.982,31.388 C160.982,29.912 162.294,28.894 164.247,28.894 C166.363,28.894 167.61,29.879 167.626,31.733" id="Fill-52"></path>
            <path d="M169.013,27.581 L170.883,27.581 L170.883,25.793 L169.013,25.793 L169.013,27.581 Z M169.013,37.474 L170.883,37.474 L170.883,29.14 L169.013,29.14 L169.013,37.474 Z" id="Fill-53"></path>
            <path d="M176.514,35.966 L176.514,37.425 C176.235,37.508 175.808,37.573 175.464,37.573 C173.708,37.573 172.937,36.835 172.937,35.014 L172.937,30.568 L171.542,30.568 L171.542,29.14 L172.937,29.14 L172.937,27.057 L174.807,27.057 L174.807,29.14 L176.432,29.14 L176.432,30.568 L174.807,30.568 L174.807,34.735 C174.807,35.67 175.119,36.047 175.94,36.047 C176.153,36.047 176.382,36.015 176.514,35.966" id="Fill-54"></path>
            <path d="M181.685,37.836 C180.897,39.952 179.979,40.592 178.043,40.592 C177.681,40.592 177.354,40.543 177.107,40.477 L177.107,38.952 C177.321,39.017 177.6,39.066 177.895,39.066 C178.912,39.066 179.355,38.689 179.749,37.54 L176.697,29.14 L178.699,29.14 L180.782,35.342 L180.815,35.342 L182.965,29.14 L184.9,29.14 L181.685,37.836" id="Fill-55"></path>
        </g>
    </g>
</svg>